# xmcd
#
# Track frame offsets:
#	150
#	12340
#	24460
#	37372
#	48782
#	61049
#	74237
#	87075
#	98306
#	110439
#	123730
#	134177
#	147227
#	159795
#	170647
#	183008
#	194316
#	204682
#	216693
#	227662
#	240147
#	252440
#	265444
#	277703
#	289389
#
# Disc length: 3985 seconds
# Revision: 0
# Processed by: cddbd v1.5.2PL0 Copyright (c) Steve Scherf et al.
# Submitted via: dBpowerAMP V12.0
#
DISCID=740f8f19
DTITLE=Platters, The - Only You
DYEAR=2010
DGENRE=R&B
TTITLE0=The Great Pretender
TTITLE1=Only You (And You Alone)
TTITLE2=Twilight Time
TTITLE3=(You've Got) The Magic Touch
TTITLE4=Smoke Gets In Your Eyes
TTITLE5=I'm Sorry
TTITLE6=My Prayer
TTITLE7=Give Thanks
TTITLE8=My Dream
TTITLE9=One In A Million
TTITLE10=You Made Me Cry
TTITLE11=Only Because
TTITLE12=I Need You All The Time
TTITLE13=He's Mine
TTITLE14=Helpless
TTITLE15=It Isn't Right
TTITLE16=Indifferent
TTITLE17=When You Return
TTITLE18=Tell The World
TTITLE19=On My Word Of Honor
TTITLE20=My Old Flame
TTITLE21=I Wanna
TTITLE22=You'll Never Know
TTITLE23=Heaven On Earth
TTITLE24=Winner Take All
EXTD=
EXTT0=
EXTT1=
EXTT2=
EXTT3=
EXTT4=
EXTT5=
EXTT6=
EXTT7=
EXTT8=
EXTT9=
EXTT10=
EXTT11=
EXTT12=
EXTT13=
EXTT14=
EXTT15=
EXTT16=
EXTT17=
EXTT18=
EXTT19=
EXTT20=
EXTT21=
EXTT22=
EXTT23=
EXTT24=
PLAYORDER=
